<svg xmlns="http://www.w3.org/2000/svg" xmlns:xlink="http://www.w3.org/1999/xlink" viewBox="0 0 1001.64 259.36"><defs><style>.cls-1{fill:#7ffff2;}.cls-2{fill:url(#linear-gradient);}.cls-3{fill:#fff;}</style><linearGradient id="linear-gradient" y1="167.43" x2="290.49" y2="167.43" gradientUnits="userSpaceOnUse"><stop offset="0" stop-color="#3f86ff"/><stop offset="1" stop-color="#7ffff2"/></linearGradient></defs><title>Horizontal-Color</title><g id="Layer_2" data-name="Layer 2"><g id="Layer_1-2" data-name="Layer 1"><circle class="cls-1" cx="331.08" cy="34.99" r="34.99"/><path class="cls-2" d="M290.49,109.92a34.25,34.25,0,0,1-10.16,24.39l-97.77,97.12L169,244.92a49.66,49.66,0,0,1-70.24-.21L85.25,231.12,10,155.4a34.4,34.4,0,0,1,48.83-48.48L134,182.64l97.77-97.16a34.42,34.42,0,0,1,58.68,24.44Z"/><path class="cls-3" d="M452.93,216.07a4.11,4.11,0,0,1-4.25-4.25V109.7a4.11,4.11,0,0,1,4.25-4.25,3.82,3.82,0,0,1,3.82,2.12l50.14,99h-5l49.44-99a4.18,4.18,0,0,1,3.82-2.12,3.92,3.92,0,0,1,3,1.2,4.31,4.31,0,0,1,1.13,3V211.82a4.29,4.29,0,0,1-1.13,3.05,3.92,3.92,0,0,1-3,1.2,4.34,4.34,0,0,1-3.11-1.2,4,4,0,0,1-1.28-3.05V119.9l2.12.7-45.18,92.07a3.72,3.72,0,0,1-3.68,2,4.36,4.36,0,0,1-4-2.69L454.34,120.6l2.84-.7v91.92a4.12,4.12,0,0,1-4.25,4.25Z"/><path class="cls-3" d="M614.11,214.23a4.53,4.53,0,0,1-3.26.42,3.77,3.77,0,0,1-2.26-2.26l-31-68a4.59,4.59,0,0,1-.43-3.26,3.81,3.81,0,0,1,2.27-2.26,4.59,4.59,0,0,1,3.26-.43,3.79,3.79,0,0,1,2.26,2.27l31,68a4.56,4.56,0,0,1,.43,3.25A3.83,3.83,0,0,1,614.11,214.23Zm-15,35.41a5.77,5.77,0,0,1-2-.42Q593.3,247.66,595,244l47.59-103.11q1.7-3.54,5.24-2.13c2.55,1.05,3.26,2.79,2.13,5.25L602.36,247.09C601.51,248.79,600.42,249.64,599.1,249.64Z"/><path class="cls-3" d="M645.13,113.1a3.64,3.64,0,0,1-3.82-3.83,3.64,3.64,0,0,1,3.82-3.82H725.3a3.91,3.91,0,0,1,2.76,6.59,3.77,3.77,0,0,1-2.76,1.06Zm40.08,103a4.11,4.11,0,0,1-4.24-4.25V105.45h8.49V211.82a4.11,4.11,0,0,1-4.25,4.25Z"/><path class="cls-3" d="M758.16,216.92a40,40,0,0,1-20.33-5.17,37.81,37.81,0,0,1-14.16-14.16,42.26,42.26,0,0,1,0-40.51,37.84,37.84,0,0,1,14.16-14.17,42.42,42.42,0,0,1,40.59,0,38,38,0,0,1,14.09,14.17,42.26,42.26,0,0,1,0,40.51,38,38,0,0,1-14.09,14.16A39.66,39.66,0,0,1,758.16,216.92Zm0-7.93a30.2,30.2,0,0,0,27-15.51,34.3,34.3,0,0,0,0-32.3,31.14,31.14,0,0,0-54,0,33.78,33.78,0,0,0,0,32.3,30.64,30.64,0,0,0,27,15.51Z"/><path class="cls-3" d="M824.59,216.07a4.11,4.11,0,0,1-4.25-4.25V109.7a4.1,4.1,0,0,1,1.2-3.12,4.29,4.29,0,0,1,3.05-1.13h25.49a59.56,59.56,0,0,1,22.31,4,51.21,51.21,0,0,1,29,29,63.43,63.43,0,0,1,0,44.55,51.06,51.06,0,0,1-29,29,59.56,59.56,0,0,1-22.31,4Zm4.25-7.65h21.24a46.79,46.79,0,0,0,24.29-6.23,44.74,44.74,0,0,0,16.58-17,49.34,49.34,0,0,0,6-24.5,49,49,0,0,0-6-24.43,45,45,0,0,0-16.58-16.93,46.89,46.89,0,0,0-24.29-6.23H828.84Z"/><path class="cls-3" d="M962.12,216.92a40,40,0,0,1-20.33-5.17,37.81,37.81,0,0,1-14.16-14.16,42.26,42.26,0,0,1,0-40.51,37.84,37.84,0,0,1,14.16-14.17,40.12,40.12,0,0,1,20.33-5.17,39.7,39.7,0,0,1,20.25,5.17,38,38,0,0,1,14.1,14.17,42.26,42.26,0,0,1,0,40.51,38,38,0,0,1-14.1,14.16A39.6,39.6,0,0,1,962.12,216.92Zm0-7.93a30.2,30.2,0,0,0,27-15.51,34.3,34.3,0,0,0,0-32.3,31.14,31.14,0,0,0-54,0,33.78,33.78,0,0,0,0,32.3,30.64,30.64,0,0,0,27,15.51Z"/></g></g></svg>